<svg width="50" height="50" viewBox="0 0 50 50" fill="none" xmlns="http://www.w3.org/2000/svg">
<path fill-rule="evenodd" clip-rule="evenodd" d="M30.9506 7.98279C32.622 6.69806 35.0129 8.06766 34.7272 10.1462C34.6976 10.3616 34.6406 10.5642 34.5607 10.7518C40.1654 15.5817 41.2187 24.81 36.6813 32.6076C32.1469 40.3999 23.5739 44.1093 16.5584 41.7183C16.4342 41.8818 16.2852 42.0329 16.1112 42.1667C14.4398 43.4514 12.0489 42.0818 12.3345 40.0033C12.3614 39.8076 12.4109 39.6225 12.4797 39.4495C6.66632 34.6783 5.51837 25.2997 10.1197 17.3923C14.718 9.49023 23.4695 5.78696 30.5382 8.38635C30.6552 8.24002 30.7925 8.10427 30.9506 7.98279Z" fill="#FFE435"/>
<ellipse opacity="0.3" cx="24.605" cy="30.5321" rx="1.20447" ry="1.19614" fill="white"/>
<ellipse opacity="0.3" cx="19.7871" cy="32.9247" rx="1.20447" ry="1.19614" fill="white"/>
<ellipse opacity="0.3" cx="23.4005" cy="37.41" rx="1.20447" ry="1.19615" fill="white"/>
<path d="M48.9958 4.48606C45.9359 2.03922 38.4705 -0.539735 33.0877 8.71917C37.3806 10.587 46.5723 12.3554 48.9958 4.48606Z" fill="#15B833"/>
</svg>
